<?xml version="1.0" encoding="UTF-8"?>
<svg width="331px" height="67px" viewBox="0 0 331 67" version="1.1" xmlns="http://www.w3.org/2000/svg" xmlns:xlink="http://www.w3.org/1999/xlink">
    <title>Untitled 2</title>
    <g id="Page-1" stroke="none" stroke-width="1" fill="none" fill-rule="evenodd">
        <g id="valuatur_logo" transform="translate(1.000000, 1.000000)" fill-rule="nonzero" stroke-width="1.25">
            <g id="path81376" transform="translate(0.000000, 21.510004)">
                <polygon id="Path" stroke="#ABC4DC" fill="#ABC4DC" points="14.5455625 42.6565875 28.4845125 42.6565875 43.030075 0 29.091125 0"></polygon>
                <polygon id="Path" stroke="#6A9BC7" fill="#6A9BC7" points="0 0 13.93895 0 28.4845125 42.6565875 14.5455625 42.6565875"></polygon>
                <polygon id="Path" stroke="#8AAFD1" fill="#8AAFD1" points="14.545575 42.6566 28.4844875 42.6566 21.5150375 22.217875"></polygon>
            </g>
            <g id="path81378" transform="translate(44.947962, 20.610004)">
                <path d="M22.2628375,44.525675 C9.98705,44.525675 7.10542736e-14,34.5386125 7.10542736e-14,22.2628375 C7.10542736e-14,9.9870625 9.9870625,0 22.2628375,0 C34.5392125,0 44.526275,9.9870625 44.526275,22.2628375 C44.526275,34.5386125 34.5392125,44.525675 22.2628375,44.525675 Z M22.2628375,13.3334375 C17.33915,13.3334375 13.3334375,17.33915 13.3334375,22.2628375 C13.3334375,27.1865375 17.33915,31.1922375 22.2628375,31.1922375 C27.1871125,31.1922375 31.1928375,27.186525 31.1928375,22.2628375 C31.1928375,17.33915 27.187125,13.3334375 22.2628375,13.3334375 Z" id="Shape" stroke="#6A9BC7" fill="#6A9BC7"></path>
                <rect id="Rectangle" stroke="#ABC4DC" fill="#ABC4DC" x="31.1928375" y="22.2628375" width="13.3334375" height="21.314675"></rect>
                <path d="M44.526275,22.2628375 L31.1928375,22.2628375 L31.1928375,42.6420875 C39.032625,39.1931625 44.526275,31.362325 44.526275,22.2628375 Z" id="Path" stroke="#8AAFD1" fill="#8AAFD1"></path>
            </g>
            <g id="path81380" transform="translate(97.291395, 0.000000)" fill="#6A9BC7" stroke="#6A9BC7">
                <rect id="Rectangle" x="0" y="0" width="13.3334375" height="64.23345"></rect>
            </g>
            <g id="path81382" transform="translate(118.449838, 21.510004)" fill="#6A9BC7" stroke="#6A9BC7">
                <path d="M30.2890625,0 L30.2890625,21.766275 C30.2890625,26.4408 26.4857625,30.2440875 21.81125,30.2440875 C17.1367375,30.2440875 13.3334375,26.4408 13.3334375,21.766275 L13.3334375,0 L0,0 L0,21.766275 C0,33.7928875 9.7846375,43.577525 21.81125,43.577525 C33.8378625,43.577525 43.6225,33.7928875 43.6225,21.766275 L43.6225,0 L30.2890625,0 Z" id="Path"></path>
            </g>
            <g id="path81384" transform="translate(167.819063, 20.610004)">
                <path d="M22.2628375,44.525675 C9.98705,44.525675 0,34.5386125 0,22.2628375 C0,9.9870625 9.9870625,0 22.2628375,0 C34.5392125,0 44.526275,9.9870625 44.526275,22.2628375 C44.526275,34.5386125 34.5392125,44.525675 22.2628375,44.525675 Z M22.2628375,13.3334375 C17.33915,13.3334375 13.3334375,17.33915 13.3334375,22.2628375 C13.3334375,27.1865375 17.33915,31.1922375 22.2628375,31.1922375 C27.1871125,31.1922375 31.1928375,27.186525 31.1928375,22.2628375 C31.1928375,17.33915 27.187125,13.3334375 22.2628375,13.3334375 Z" id="Shape" stroke="#6A9BC7" fill="#6A9BC7"></path>
                <rect id="Rectangle" stroke="#ABC4DC" fill="#ABC4DC" x="31.1928375" y="22.2628375" width="13.3334375" height="21.314675"></rect>
                <path d="M44.526275,22.2628375 L31.1928375,22.2628375 L31.1928375,42.6420875 C39.032625,39.1931625 44.526275,31.362325 44.526275,22.2628375 Z" id="Path" stroke="#8AAFD1" fill="#8AAFD1"></path>
            </g>
            <g id="path81386" transform="translate(219.532500, 6.660004)">
                <rect id="Rectangle" stroke="#ABC4DC" fill="#ABC4DC" x="0" y="15.2013625" width="23.2044875" height="10.909175"></rect>
                <path d="M16.4478,58.522 C7.378125,58.522 0,51.143275 0,42.0741875 L0,0 L13.3334375,0 L13.3334375,42.0742 C13.3334375,43.7912 14.730225,45.188575 16.4478,45.188575 C17.2657625,45.188575 17.873,44.8814 18.2375875,44.6233375 L25.9341375,55.5112125 C23.147675,57.480925 19.867575,58.522 16.4478,58.522 Z" id="Path" stroke="#6A9BC7" fill="#6A9BC7"></path>
                <rect id="Rectangle" stroke="#8AAFD1" fill="#8AAFD1" x="0" y="15.2013625" width="13.3334375" height="10.909175"></rect>
            </g>
            <g id="path81388" transform="translate(250.285775, 21.510004)" fill="#6A9BC7" stroke="#6A9BC7">
                <path d="M30.2890625,0 L30.2890625,21.766275 C30.2890625,26.4408 26.4857625,30.2440875 21.81125,30.2440875 C17.1367375,30.2440875 13.3334375,26.4408 13.3334375,21.766275 L13.3334375,0 L0,0 L0,21.766275 C0,33.7928875 9.7846375,43.577525 21.81125,43.577525 C33.8378625,43.577525 43.6225,33.7928875 43.6225,21.766275 L43.6225,0 L30.2890625,0 Z" id="Path"></path>
            </g>
            <g id="path81390" transform="translate(301.725000, 20.610004)">
                <path d="M21.8113125,13.3335125 C22.5309875,13.3335125 23.2448,13.42285 23.9312875,13.5986375 L27.238625,0.6818375 C25.4725,0.2296375 23.646025,0 21.8113,0 C9.784625,0 0,9.7847 0,21.8113 L13.33345,21.8113 C13.33345,17.136775 17.136775,13.3335125 21.8113125,13.3335125 Z" id="Path" stroke="#6A9BC7" fill="#6A9BC7"></path>
                <rect id="Rectangle" stroke="#ABC4DC" fill="#ABC4DC" x="1.25e-05" y="0.920975" width="13.3334375" height="42.6565875"></rect>
                <path d="M13.33345,21.8113 L13.33345,1.7154125 C5.505725,5.0302 1.25e-05,12.7898625 1.25e-05,21.8113" id="Path" stroke="#8AAFD1" fill="#8AAFD1"></path>
            </g>
        </g>
    </g>
</svg>